<svg width="53" height="55" viewBox="0 0 53 55" fill="none" xmlns="http://www.w3.org/2000/svg">
<path d="M7.72443 22.582H0V54.9993H24.2374L13.4795 33.876L7.72443 22.582Z" fill="#FEFAF6"/>
<path d="M52.0783 16.8721L52.0768 16.8705C52.0635 12.3885 50.2725 8.09495 47.0969 4.93206C43.9213 1.76916 39.6206 -0.00461949 35.1386 9.03558e-06H0V11.2914H26.1341C27.0812 9.78003 28.3936 8.53146 29.9503 7.66081C31.5069 6.79016 33.2577 6.32546 35.0412 6.30956C36.8248 6.29366 38.5836 6.72708 40.1555 7.56983C41.7274 8.41259 43.0619 9.63757 44.0358 11.1318H36.0385L30.692 16.8721L36.0385 22.6123H44.1232C43.1637 24.1317 41.8347 25.3829 40.2602 26.2491C38.6858 27.1152 36.9175 27.568 35.1205 27.565C33.3236 27.5621 31.5567 27.1035 29.9851 26.2322C28.4136 25.3609 27.0886 24.1053 26.1341 22.5828H19.1667C19.224 22.7545 19.2864 22.921 19.3515 23.0901L20.8682 26.0691L20.8761 26.0795L24.8463 33.8768L35.6069 55H46.9737L36.2131 33.8768H35.1386C35.495 33.8768 35.8489 33.8664 36.1975 33.8429C40.4994 33.5766 44.5377 31.6792 47.4887 28.5377C50.4397 25.3962 52.0812 21.2472 52.0783 16.9371C52.0783 16.9158 52.077 16.8948 52.0769 16.8735L52.0783 16.8721Z" fill="#FEFAF6"/>
</svg>
