<svg width="193" height="65" viewBox="0 0 193 65" fill="none" xmlns="http://www.w3.org/2000/svg">
<path d="M80.012 31L75.7 23.384H73.852V31H69.932V11.456H77.268C78.78 11.456 80.068 11.7267 81.132 12.268C82.196 12.7907 82.9893 13.5093 83.512 14.424C84.0533 15.32 84.324 16.328 84.324 17.448C84.324 18.736 83.9507 19.9027 83.204 20.948C82.4573 21.9747 81.3467 22.684 79.872 23.076L84.548 31H80.012ZM73.852 20.444H77.128C78.192 20.444 78.9853 20.192 79.508 19.688C80.0307 19.1653 80.292 18.4467 80.292 17.532C80.292 16.636 80.0307 15.9453 79.508 15.46C78.9853 14.956 78.192 14.704 77.128 14.704H73.852V20.444ZM91.7895 11.456V31H87.8695V11.456H91.7895ZM112.378 31H108.458L99.5825 17.588V31H95.6625V11.428H99.5825L108.458 24.868V11.428H112.378V31ZM129.552 11.456V14.62H124.344V31H120.424V14.62H115.216V11.456H129.552ZM144.396 27.276H136.612L135.324 31H131.208L138.236 11.428H142.8L149.828 31H145.684L144.396 27.276ZM143.332 24.14L140.504 15.964L137.676 24.14H143.332ZM169.171 31H165.251L156.375 17.588V31H152.455V11.428H156.375L165.251 24.868V11.428H169.171V31ZM186.653 17.336C186.205 16.5147 185.589 15.8893 184.805 15.46C184.021 15.0307 183.107 14.816 182.061 14.816C180.904 14.816 179.877 15.0773 178.981 15.6C178.085 16.1227 177.385 16.8693 176.881 17.84C176.377 18.8107 176.125 19.9307 176.125 21.2C176.125 22.5067 176.377 23.6453 176.881 24.616C177.404 25.5867 178.123 26.3333 179.037 26.856C179.952 27.3787 181.016 27.64 182.229 27.64C183.723 27.64 184.945 27.248 185.897 26.464C186.849 25.6613 187.475 24.5507 187.773 23.132H181.053V20.136H191.637V23.552C191.376 24.9147 190.816 26.1747 189.957 27.332C189.099 28.4893 187.988 29.4227 186.625 30.132C185.281 30.8227 183.769 31.168 182.089 31.168C180.204 31.168 178.496 30.748 176.965 29.908C175.453 29.0493 174.259 27.864 173.381 26.352C172.523 24.84 172.093 23.1227 172.093 21.2C172.093 19.2773 172.523 17.56 173.381 16.048C174.259 14.5173 175.453 13.332 176.965 12.492C178.496 11.6333 180.195 11.204 182.061 11.204C184.264 11.204 186.177 11.7453 187.801 12.828C189.425 13.892 190.545 15.3947 191.161 17.336H186.653Z" fill="black"/>
<path d="M93.2 57.14C92.2267 57.14 91.3467 56.9733 90.56 56.64C89.7867 56.3067 89.1733 55.8267 88.72 55.2C88.2667 54.5733 88.0333 53.8333 88.02 52.98H91.02C91.06 53.5533 91.26 54.0067 91.62 54.34C91.9933 54.6733 92.5 54.84 93.14 54.84C93.7933 54.84 94.3067 54.6867 94.68 54.38C95.0533 54.06 95.24 53.6467 95.24 53.14C95.24 52.7267 95.1133 52.3867 94.86 52.12C94.6067 51.8533 94.2867 51.6467 93.9 51.5C93.5267 51.34 93.0067 51.1667 92.34 50.98C91.4333 50.7133 90.6933 50.4533 90.12 50.2C89.56 49.9333 89.0733 49.54 88.66 49.02C88.26 48.4867 88.06 47.78 88.06 46.9C88.06 46.0733 88.2667 45.3533 88.68 44.74C89.0933 44.1267 89.6733 43.66 90.42 43.34C91.1667 43.0067 92.02 42.84 92.98 42.84C94.42 42.84 95.5867 43.1933 96.48 43.9C97.3867 44.5933 97.8867 45.5667 97.98 46.82H94.9C94.8733 46.34 94.6667 45.9467 94.28 45.64C93.9067 45.32 93.4067 45.16 92.78 45.16C92.2333 45.16 91.7933 45.3 91.46 45.58C91.14 45.86 90.98 46.2667 90.98 46.8C90.98 47.1733 91.1 47.4867 91.34 47.74C91.5933 47.98 91.9 48.18 92.26 48.34C92.6333 48.4867 93.1533 48.66 93.82 48.86C94.7267 49.1267 95.4667 49.3933 96.04 49.66C96.6133 49.9267 97.1067 50.3267 97.52 50.86C97.9333 51.3933 98.14 52.0933 98.14 52.96C98.14 53.7067 97.9467 54.4 97.56 55.04C97.1733 55.68 96.6067 56.1933 95.86 56.58C95.1133 56.9533 94.2267 57.14 93.2 57.14ZM110.868 51.22C110.868 51.62 110.841 51.98 110.788 52.3H102.688C102.754 53.1 103.034 53.7267 103.528 54.18C104.021 54.6333 104.628 54.86 105.348 54.86C106.388 54.86 107.128 54.4133 107.568 53.52H110.588C110.268 54.5867 109.654 55.4667 108.748 56.16C107.841 56.84 106.728 57.18 105.408 57.18C104.341 57.18 103.381 56.9467 102.528 56.48C101.688 56 101.028 55.3267 100.548 54.46C100.081 53.5933 99.8475 52.5933 99.8475 51.46C99.8475 50.3133 100.081 49.3067 100.548 48.44C101.014 47.5733 101.668 46.9067 102.508 46.44C103.348 45.9733 104.314 45.74 105.408 45.74C106.461 45.74 107.401 45.9667 108.228 46.42C109.068 46.8733 109.714 47.52 110.168 48.36C110.634 49.1867 110.868 50.14 110.868 51.22ZM107.968 50.42C107.954 49.7 107.694 49.1267 107.188 48.7C106.681 48.26 106.061 48.04 105.328 48.04C104.634 48.04 104.048 48.2533 103.568 48.68C103.101 49.0933 102.814 49.6733 102.708 50.42H107.968ZM115.711 47.64C116.071 47.0533 116.538 46.5933 117.111 46.26C117.698 45.9267 118.365 45.76 119.111 45.76V48.7H118.371C117.491 48.7 116.825 48.9067 116.371 49.32C115.931 49.7333 115.711 50.4533 115.711 51.48V57H112.911V45.92H115.711V47.64ZM125.617 54.42L128.417 45.92H131.397L127.297 57H123.897L119.817 45.92H122.817L125.617 54.42ZM134.39 44.6C133.897 44.6 133.483 44.4467 133.15 44.14C132.83 43.82 132.67 43.4267 132.67 42.96C132.67 42.4933 132.83 42.1067 133.15 41.8C133.483 41.48 133.897 41.32 134.39 41.32C134.883 41.32 135.29 41.48 135.61 41.8C135.943 42.1067 136.11 42.4933 136.11 42.96C136.11 43.4267 135.943 43.82 135.61 44.14C135.29 44.4467 134.883 44.6 134.39 44.6ZM135.77 45.92V57H132.97V45.92H135.77ZM137.816 51.46C137.816 50.3133 138.05 49.3133 138.516 48.46C138.983 47.5933 139.63 46.9267 140.456 46.46C141.283 45.98 142.23 45.74 143.296 45.74C144.67 45.74 145.803 46.0867 146.696 46.78C147.603 47.46 148.21 48.42 148.516 49.66H145.496C145.336 49.18 145.063 48.8067 144.676 48.54C144.303 48.26 143.836 48.12 143.276 48.12C142.476 48.12 141.843 48.4133 141.376 49C140.91 49.5733 140.676 50.3933 140.676 51.46C140.676 52.5133 140.91 53.3333 141.376 53.92C141.843 54.4933 142.476 54.78 143.276 54.78C144.41 54.78 145.15 54.2733 145.496 53.26H148.516C148.21 54.46 147.603 55.4133 146.696 56.12C145.79 56.8267 144.656 57.18 143.296 57.18C142.23 57.18 141.283 56.9467 140.456 56.48C139.63 56 138.983 55.3333 138.516 54.48C138.05 53.6133 137.816 52.6067 137.816 51.46ZM160.868 51.22C160.868 51.62 160.841 51.98 160.788 52.3H152.688C152.754 53.1 153.034 53.7267 153.528 54.18C154.021 54.6333 154.628 54.86 155.348 54.86C156.388 54.86 157.128 54.4133 157.568 53.52H160.588C160.268 54.5867 159.654 55.4667 158.748 56.16C157.841 56.84 156.728 57.18 155.408 57.18C154.341 57.18 153.381 56.9467 152.528 56.48C151.688 56 151.028 55.3267 150.548 54.46C150.081 53.5933 149.847 52.5933 149.847 51.46C149.847 50.3133 150.081 49.3067 150.548 48.44C151.014 47.5733 151.668 46.9067 152.508 46.44C153.348 45.9733 154.314 45.74 155.408 45.74C156.461 45.74 157.401 45.9667 158.228 46.42C159.068 46.8733 159.714 47.52 160.168 48.36C160.634 49.1867 160.868 50.14 160.868 51.22ZM157.968 50.42C157.954 49.7 157.694 49.1267 157.188 48.7C156.681 48.26 156.061 48.04 155.328 48.04C154.634 48.04 154.048 48.2533 153.568 48.68C153.101 49.0933 152.814 49.6733 152.708 50.42H157.968ZM167.151 57.18C166.245 57.18 165.431 57.02 164.711 56.7C163.991 56.3667 163.418 55.92 162.991 55.36C162.578 54.8 162.351 54.18 162.311 53.5H165.131C165.185 53.9267 165.391 54.28 165.751 54.56C166.125 54.84 166.585 54.98 167.131 54.98C167.665 54.98 168.078 54.8733 168.371 54.66C168.678 54.4467 168.831 54.1733 168.831 53.84C168.831 53.48 168.645 53.2133 168.271 53.04C167.911 52.8533 167.331 52.6533 166.531 52.44C165.705 52.24 165.025 52.0333 164.491 51.82C163.971 51.6067 163.518 51.28 163.131 50.84C162.758 50.4 162.571 49.8067 162.571 49.06C162.571 48.4467 162.745 47.8867 163.091 47.38C163.451 46.8733 163.958 46.4733 164.611 46.18C165.278 45.8867 166.058 45.74 166.951 45.74C168.271 45.74 169.325 46.0733 170.111 46.74C170.898 47.3933 171.331 48.28 171.411 49.4H168.731C168.691 48.96 168.505 48.6133 168.171 48.36C167.851 48.0933 167.418 47.96 166.871 47.96C166.365 47.96 165.971 48.0533 165.691 48.24C165.425 48.4267 165.291 48.6867 165.291 49.02C165.291 49.3933 165.478 49.68 165.851 49.88C166.225 50.0667 166.805 50.26 167.591 50.46C168.391 50.66 169.051 50.8667 169.571 51.08C170.091 51.2933 170.538 51.6267 170.911 52.08C171.298 52.52 171.498 53.1067 171.511 53.84C171.511 54.48 171.331 55.0533 170.971 55.56C170.625 56.0667 170.118 56.4667 169.451 56.76C168.798 57.04 168.031 57.18 167.151 57.18Z" fill="black"/>
<path d="M9.18537 27.582H1.46094V59.9993H25.6984L14.9404 38.876L9.18537 27.582Z" fill="black"/>
<path d="M53.5392 21.8721L53.5378 21.8705C53.5245 17.3885 51.7335 13.0949 48.5579 9.93206C45.3823 6.76916 41.0815 4.99538 36.5995 5.00001H1.46094V16.2914H27.595C28.5421 14.78 29.8545 13.5315 31.4112 12.6608C32.9678 11.7902 34.7187 11.3255 36.5022 11.3096C38.2857 11.2937 40.0445 11.7271 41.6165 12.5698C43.1884 13.4126 44.5228 14.6376 45.4967 16.1318H37.4995L32.1529 21.8721L37.4995 27.6123H45.5842C44.6247 29.1317 43.2956 30.3829 41.7212 31.2491C40.1467 32.1152 38.3784 32.568 36.5814 32.565C34.7845 32.5621 33.0176 32.1035 31.4461 31.2322C29.8745 30.3609 28.5495 29.1053 27.595 27.5828H20.6277C20.6849 27.7545 20.7474 27.921 20.8124 28.0901L22.3292 31.0691L22.337 31.0795L26.3072 38.8768L37.0678 60H48.4347L37.674 38.8768H36.5995C36.956 38.8768 37.3098 38.8664 37.6584 38.8429C41.9603 38.5766 45.9986 36.6792 48.9496 33.5377C51.9006 30.3962 53.5421 26.2472 53.5392 21.9371C53.5392 21.9158 53.5379 21.8948 53.5378 21.8735L53.5392 21.8721Z" fill="black"/>
</svg>
