<svg width="186" height="65" viewBox="0 0 186 65" fill="none" xmlns="http://www.w3.org/2000/svg">
<path d="M73.012 31L68.7 23.384H66.852V31H62.932V11.456H70.268C71.78 11.456 73.068 11.7267 74.132 12.268C75.196 12.7907 75.9893 13.5093 76.512 14.424C77.0533 15.32 77.324 16.328 77.324 17.448C77.324 18.736 76.9507 19.9027 76.204 20.948C75.4573 21.9747 74.3467 22.684 72.872 23.076L77.548 31H73.012ZM66.852 20.444H70.128C71.192 20.444 71.9853 20.192 72.508 19.688C73.0307 19.1653 73.292 18.4467 73.292 17.532C73.292 16.636 73.0307 15.9453 72.508 15.46C71.9853 14.956 71.192 14.704 70.128 14.704H66.852V20.444ZM84.7895 11.456V31H80.8695V11.456H84.7895ZM105.378 31H101.458L92.5825 17.588V31H88.6625V11.428H92.5825L101.458 24.868V11.428H105.378V31ZM122.552 11.456V14.62H117.344V31H113.424V14.62H108.216V11.456H122.552ZM137.396 27.276H129.612L128.324 31H124.208L131.236 11.428H135.8L142.828 31H138.684L137.396 27.276ZM136.332 24.14L133.504 15.964L130.676 24.14H136.332ZM162.171 31H158.251L149.375 17.588V31H145.455V11.428H149.375L158.251 24.868V11.428H162.171V31ZM179.653 17.336C179.205 16.5147 178.589 15.8893 177.805 15.46C177.021 15.0307 176.107 14.816 175.061 14.816C173.904 14.816 172.877 15.0773 171.981 15.6C171.085 16.1227 170.385 16.8693 169.881 17.84C169.377 18.8107 169.125 19.9307 169.125 21.2C169.125 22.5067 169.377 23.6453 169.881 24.616C170.404 25.5867 171.123 26.3333 172.037 26.856C172.952 27.3787 174.016 27.64 175.229 27.64C176.723 27.64 177.945 27.248 178.897 26.464C179.849 25.6613 180.475 24.5507 180.773 23.132H174.053V20.136H184.637V23.552C184.376 24.9147 183.816 26.1747 182.957 27.332C182.099 28.4893 180.988 29.4227 179.625 30.132C178.281 30.8227 176.769 31.168 175.089 31.168C173.204 31.168 171.496 30.748 169.965 29.908C168.453 29.0493 167.259 27.864 166.381 26.352C165.523 24.84 165.093 23.1227 165.093 21.2C165.093 19.2773 165.523 17.56 166.381 16.048C167.259 14.5173 168.453 13.332 169.965 12.492C171.496 11.6333 173.195 11.204 175.061 11.204C177.264 11.204 179.177 11.7453 180.801 12.828C182.425 13.892 183.545 15.3947 184.161 17.336H179.653Z" fill="#FEFAF6"/>
<path d="M86.2 57.14C85.2267 57.14 84.3467 56.9733 83.56 56.64C82.7867 56.3067 82.1733 55.8267 81.72 55.2C81.2667 54.5733 81.0333 53.8333 81.02 52.98H84.02C84.06 53.5533 84.26 54.0067 84.62 54.34C84.9933 54.6733 85.5 54.84 86.14 54.84C86.7933 54.84 87.3067 54.6867 87.68 54.38C88.0533 54.06 88.24 53.6467 88.24 53.14C88.24 52.7267 88.1133 52.3867 87.86 52.12C87.6067 51.8533 87.2867 51.6467 86.9 51.5C86.5267 51.34 86.0067 51.1667 85.34 50.98C84.4333 50.7133 83.6933 50.4533 83.12 50.2C82.56 49.9333 82.0733 49.54 81.66 49.02C81.26 48.4867 81.06 47.78 81.06 46.9C81.06 46.0733 81.2667 45.3533 81.68 44.74C82.0933 44.1267 82.6733 43.66 83.42 43.34C84.1667 43.0067 85.02 42.84 85.98 42.84C87.42 42.84 88.5867 43.1933 89.48 43.9C90.3867 44.5933 90.8867 45.5667 90.98 46.82H87.9C87.8733 46.34 87.6667 45.9467 87.28 45.64C86.9067 45.32 86.4067 45.16 85.78 45.16C85.2333 45.16 84.7933 45.3 84.46 45.58C84.14 45.86 83.98 46.2667 83.98 46.8C83.98 47.1733 84.1 47.4867 84.34 47.74C84.5933 47.98 84.9 48.18 85.26 48.34C85.6333 48.4867 86.1533 48.66 86.82 48.86C87.7267 49.1267 88.4667 49.3933 89.04 49.66C89.6133 49.9267 90.1067 50.3267 90.52 50.86C90.9333 51.3933 91.14 52.0933 91.14 52.96C91.14 53.7067 90.9467 54.4 90.56 55.04C90.1733 55.68 89.6067 56.1933 88.86 56.58C88.1133 56.9533 87.2267 57.14 86.2 57.14ZM103.868 51.22C103.868 51.62 103.841 51.98 103.788 52.3H95.6875C95.7542 53.1 96.0342 53.7267 96.5275 54.18C97.0208 54.6333 97.6275 54.86 98.3475 54.86C99.3875 54.86 100.128 54.4133 100.568 53.52H103.588C103.268 54.5867 102.654 55.4667 101.748 56.16C100.841 56.84 99.7275 57.18 98.4075 57.18C97.3408 57.18 96.3808 56.9467 95.5275 56.48C94.6875 56 94.0275 55.3267 93.5475 54.46C93.0808 53.5933 92.8475 52.5933 92.8475 51.46C92.8475 50.3133 93.0808 49.3067 93.5475 48.44C94.0142 47.5733 94.6675 46.9067 95.5075 46.44C96.3475 45.9733 97.3142 45.74 98.4075 45.74C99.4608 45.74 100.401 45.9667 101.228 46.42C102.068 46.8733 102.714 47.52 103.168 48.36C103.634 49.1867 103.868 50.14 103.868 51.22ZM100.968 50.42C100.954 49.7 100.694 49.1267 100.188 48.7C99.6808 48.26 99.0608 48.04 98.3275 48.04C97.6342 48.04 97.0475 48.2533 96.5675 48.68C96.1008 49.0933 95.8142 49.6733 95.7075 50.42H100.968ZM108.711 47.64C109.071 47.0533 109.538 46.5933 110.111 46.26C110.698 45.9267 111.365 45.76 112.111 45.76V48.7H111.371C110.491 48.7 109.825 48.9067 109.371 49.32C108.931 49.7333 108.711 50.4533 108.711 51.48V57H105.911V45.92H108.711V47.64ZM118.617 54.42L121.417 45.92H124.397L120.297 57H116.897L112.817 45.92H115.817L118.617 54.42ZM127.39 44.6C126.897 44.6 126.483 44.4467 126.15 44.14C125.83 43.82 125.67 43.4267 125.67 42.96C125.67 42.4933 125.83 42.1067 126.15 41.8C126.483 41.48 126.897 41.32 127.39 41.32C127.883 41.32 128.29 41.48 128.61 41.8C128.943 42.1067 129.11 42.4933 129.11 42.96C129.11 43.4267 128.943 43.82 128.61 44.14C128.29 44.4467 127.883 44.6 127.39 44.6ZM128.77 45.92V57H125.97V45.92H128.77ZM130.816 51.46C130.816 50.3133 131.05 49.3133 131.516 48.46C131.983 47.5933 132.63 46.9267 133.456 46.46C134.283 45.98 135.23 45.74 136.296 45.74C137.67 45.74 138.803 46.0867 139.696 46.78C140.603 47.46 141.21 48.42 141.516 49.66H138.496C138.336 49.18 138.063 48.8067 137.676 48.54C137.303 48.26 136.836 48.12 136.276 48.12C135.476 48.12 134.843 48.4133 134.376 49C133.91 49.5733 133.676 50.3933 133.676 51.46C133.676 52.5133 133.91 53.3333 134.376 53.92C134.843 54.4933 135.476 54.78 136.276 54.78C137.41 54.78 138.15 54.2733 138.496 53.26H141.516C141.21 54.46 140.603 55.4133 139.696 56.12C138.79 56.8267 137.656 57.18 136.296 57.18C135.23 57.18 134.283 56.9467 133.456 56.48C132.63 56 131.983 55.3333 131.516 54.48C131.05 53.6133 130.816 52.6067 130.816 51.46ZM153.868 51.22C153.868 51.62 153.841 51.98 153.788 52.3H145.688C145.754 53.1 146.034 53.7267 146.528 54.18C147.021 54.6333 147.628 54.86 148.348 54.86C149.388 54.86 150.128 54.4133 150.568 53.52H153.588C153.268 54.5867 152.654 55.4667 151.748 56.16C150.841 56.84 149.728 57.18 148.408 57.18C147.341 57.18 146.381 56.9467 145.528 56.48C144.688 56 144.028 55.3267 143.548 54.46C143.081 53.5933 142.847 52.5933 142.847 51.46C142.847 50.3133 143.081 49.3067 143.548 48.44C144.014 47.5733 144.668 46.9067 145.508 46.44C146.348 45.9733 147.314 45.74 148.408 45.74C149.461 45.74 150.401 45.9667 151.228 46.42C152.068 46.8733 152.714 47.52 153.168 48.36C153.634 49.1867 153.868 50.14 153.868 51.22ZM150.968 50.42C150.954 49.7 150.694 49.1267 150.188 48.7C149.681 48.26 149.061 48.04 148.328 48.04C147.634 48.04 147.048 48.2533 146.568 48.68C146.101 49.0933 145.814 49.6733 145.708 50.42H150.968ZM160.151 57.18C159.245 57.18 158.431 57.02 157.711 56.7C156.991 56.3667 156.418 55.92 155.991 55.36C155.578 54.8 155.351 54.18 155.311 53.5H158.131C158.185 53.9267 158.391 54.28 158.751 54.56C159.125 54.84 159.585 54.98 160.131 54.98C160.665 54.98 161.078 54.8733 161.371 54.66C161.678 54.4467 161.831 54.1733 161.831 53.84C161.831 53.48 161.645 53.2133 161.271 53.04C160.911 52.8533 160.331 52.6533 159.531 52.44C158.705 52.24 158.025 52.0333 157.491 51.82C156.971 51.6067 156.518 51.28 156.131 50.84C155.758 50.4 155.571 49.8067 155.571 49.06C155.571 48.4467 155.745 47.8867 156.091 47.38C156.451 46.8733 156.958 46.4733 157.611 46.18C158.278 45.8867 159.058 45.74 159.951 45.74C161.271 45.74 162.325 46.0733 163.111 46.74C163.898 47.3933 164.331 48.28 164.411 49.4H161.731C161.691 48.96 161.505 48.6133 161.171 48.36C160.851 48.0933 160.418 47.96 159.871 47.96C159.365 47.96 158.971 48.0533 158.691 48.24C158.425 48.4267 158.291 48.6867 158.291 49.02C158.291 49.3933 158.478 49.68 158.851 49.88C159.225 50.0667 159.805 50.26 160.591 50.46C161.391 50.66 162.051 50.8667 162.571 51.08C163.091 51.2933 163.538 51.6267 163.911 52.08C164.298 52.52 164.498 53.1067 164.511 53.84C164.511 54.48 164.331 55.0533 163.971 55.56C163.625 56.0667 163.118 56.4667 162.451 56.76C161.798 57.04 161.031 57.18 160.151 57.18Z" fill="#FEFAF6"/>
<path d="M7.72443 27.582H0V59.9993H24.2374L13.4795 38.876L7.72443 27.582Z" fill="#FEFAF6"/>
<path d="M52.0783 21.8721L52.0768 21.8705C52.0635 17.3885 50.2725 13.0949 47.0969 9.93206C43.9213 6.76916 39.6206 4.99538 35.1386 5.00001H0V16.2914H26.1341C27.0812 14.78 28.3936 13.5315 29.9503 12.6608C31.5069 11.7902 33.2577 11.3255 35.0412 11.3096C36.8248 11.2937 38.5836 11.7271 40.1555 12.5698C41.7274 13.4126 43.0619 14.6376 44.0358 16.1318H36.0385L30.692 21.8721L36.0385 27.6123H44.1232C43.1637 29.1317 41.8347 30.3829 40.2602 31.2491C38.6858 32.1152 36.9175 32.568 35.1205 32.565C33.3236 32.5621 31.5567 32.1035 29.9851 31.2322C28.4136 30.3609 27.0886 29.1053 26.1341 27.5828H19.1667C19.224 27.7545 19.2864 27.921 19.3515 28.0901L20.8682 31.0691L20.8761 31.0795L24.8463 38.8768L35.6069 60H46.9737L36.2131 38.8768H35.1386C35.495 38.8768 35.8489 38.8664 36.1975 38.8429C40.4994 38.5766 44.5377 36.6792 47.4887 33.5377C50.4397 30.3962 52.0812 26.2472 52.0783 21.9371C52.0783 21.9158 52.077 21.8948 52.0769 21.8735L52.0783 21.8721Z" fill="#FEFAF6"/>
</svg>
