<svg width="130" height="130" viewBox="0 0 130 130" fill="none" xmlns="http://www.w3.org/2000/svg">
<path d="M41.6 97.5L65 74.1L88.4 97.5L97.5 88.4L74.1 65L97.5 41.6L88.4 32.5L65 55.9L41.6 32.5L32.5 41.6L55.9 65L32.5 88.4L41.6 97.5ZM65 130C56.0083 130 47.5583 128.293 39.65 124.878C31.7417 121.463 24.8625 116.833 19.0125 110.987C13.1625 105.142 8.53234 98.2627 5.12201 90.35C1.71168 82.4373 0.00434156 73.9873 8.22784e-06 65C-0.00432511 56.0127 1.70301 47.5627 5.12201 39.65C8.54101 31.7373 13.1712 24.8582 19.0125 19.0125C24.8538 13.1668 31.733 8.53667 39.65 5.122C47.567 1.70733 56.017 0 65 0C73.983 0 82.433 1.70733 90.35 5.122C98.267 8.53667 105.146 13.1668 110.988 19.0125C116.829 24.8582 121.461 31.7373 124.885 39.65C128.308 47.5627 130.013 56.0127 130 65C129.987 73.9873 128.28 82.4373 124.878 90.35C121.476 98.2627 116.846 105.142 110.988 110.987C105.129 116.833 98.2497 121.465 90.35 124.884C82.4503 128.303 74.0003 130.009 65 130ZM65 117C79.5167 117 91.8125 111.962 101.888 101.887C111.963 91.8125 117 79.5167 117 65C117 50.4833 111.963 38.1875 101.888 28.1125C91.8125 18.0375 79.5167 13 65 13C50.4833 13 38.1875 18.0375 28.1125 28.1125C18.0375 38.1875 13 50.4833 13 65C13 79.5167 18.0375 91.8125 28.1125 101.887C38.1875 111.962 50.4833 117 65 117Z" fill="#8B1A10"/>
</svg>
